# AST/ASF file generated using VICON BodyLanguage
# -----------------------------------------------
:version 1.10
:name VICON
:units
  mass 1.0
  length 0.45
  angle deg
:documentation
   .ast/.asf automatically generated from VICON data using
   VICON BodyBuilder and BodyLanguage model FoxedUp or BRILLIANT.MOD
:root
   order TX TY TZ RX RY RZ
   axis XYZ
   position 0 0 0  
   orientation 0 0 0 
:bonedata
  begin
     id 1 
     name lhipjoint
     direction 0.682418 -0.694059 0.22932 
     length 2.25561 
     axis 0 0 0  XYZ
  end
  begin
     id 2 
     name lfemur
     direction 0.34202 -0.939693 0  
     length 6.96448  
     axis 0 0 20  XYZ
    dof rx ry rz
    limits (-160.0 20.0)
           (-70.0 70.0)
           (-60.0 70.0)
  end
  begin
     id 3 
     name ltibia
     direction 0.34202 -0.939693 0   
     length 6.88553   
     axis 0 0 20   XYZ
    dof rx
    limits (-10.0 170.0)
  end
  begin
     id 4 
     name lfoot
     direction 0.0723587 -0.198804 0.977364   
     length 1.88518   
     axis -90 7.62852e-016 20   XYZ
    dof rx rz
    limits (-45.0 90.0)
           (-70.0 20.0)
  end
  begin
     id 5 
     name ltoes
     direction 1.53558e-011 -4.21962e-011 1   
     length 0.952124   
     axis -90 7.62852e-016 20   XYZ
    dof rx
    limits (-90.0 20.0)
  end
  begin
     id 6 
     name rhipjoint
     direction -0.657603 -0.71533 0.236348   
     length 2.18854  
     axis 0 0 0  XYZ 
  end
  begin
     id 7 
     name rfemur
     direction -0.34202 -0.939693 0   
     length 6.86686   
     axis 0 0 -20   XYZ
    dof rx ry rz
    limits (-160.0 20.0)
           (-70.0 70.0)
           (-70.0 60.0)
  end
  begin
     id 8 
     name rtibia
     direction -0.34202 -0.939693 0   
     length 6.59503   
     axis 0 0 -20   XYZ
    dof rx
    limits (-10.0 170.0)
 end
 begin
     id 9 
     name rfoot
     direction -0.101977 -0.280179 0.954516   
     length 1.93723  
     axis -90 -7.62852e-016 -20   XYZ
    dof rx rz
    limits (-45.0 90.0)
           (-20.0 70.0)
  end
  begin
     id 10 
     name rtoes
     direction -1.53564e-011 -4.21897e-011 1   
     length 0.970315   
     axis -90 -7.62852e-016 -20   XYZ
    dof rx
    limits (-90.0 20.0)
  end
  begin
     id 11 
     name lowerback
     direction -0.0339559 0.999421 -0.00235966   
     length 1.88543   
     axis 0 0 0   XYZ
    dof rx ry rz
    limits (-20.0 45.0)
           (-30.0 30.0)
           (-30.0 30.0)
  end
  begin
     id 12 
     name upperback
     direction 0.00401003 0.999739 0.0224689   
     length 1.8856   
     axis 0 0 0   XYZ
    dof rx ry rz
    limits (-20.0 45.0)
           (-30.0 30.0)
           (-30.0 30.0)
  end
  begin
     id 13 
     name thorax
     direction 0.0198619 0.999546 0.0226536   
     length 1.88352   
     axis 0 0 0   XYZ
    dof rx ry rz
    limits (-20.0 45.0)
           (-30.0 30.0)
           (-30.0 30.0)
  end
  begin
     id 14 
     name lowerneck
     direction -0.0461848 0.998632 0.0245198   
     length 1.34895   
     axis 0 0 0   XYZ
    dof rx ry rz
    limits (-20.0 45.0)
           (-30.0 30.0)
           (-30.0 30.0)
  end
  begin
     id 15 
     name upperneck
     direction -0.0180627 0.994724 -0.100984   
     length 1.35214   
     axis 0 0 0   XYZ
    dof rx ry rz
    limits (-20.0 45.0)
           (-30.0 30.0)
           (-30.0 30.0)
  end
  begin
     id 16
     name head
     direction -0.00374772 0.999293 -0.037403  
     length 1.3568  
     axis 0 0 0   XYZ
    dof rx ry rz
    limits (-20.0 45.0)
           (-30.0 30.0)
           (-30.0 30.0)
  end
  begin
     id 17 
     name lclavicle
     direction 0.971773 0.191119 0.138311  
     length 2.84954  
     axis 0 0 0   XYZ
    dof ry rz
    limits (-20.0 10.0)
           (0.0 20.0)
  end
  begin
     id 18 
     name lhumerus
     direction 1 -4.4897e-011 -2.43761e-027   
     length 4.40919   
     axis 180 -30 -90   XYZ
    dof rx ry rz
    limits (-60.0 90.0)
           (-90.0 90.0)
           (-90.0 90.0)
  end
  begin
     id 19
     name lradius
     direction 1 -4.4896e-011 -9.1621e-027   
     length 3.03857   
     axis 180 -30 -90   XYZ
    dof rx
    limits (-10.0 170.0)
  end
  begin
     id 20
     name lwrist
     direction 1 -4.4896e-011 -1.41363e-026   
     length 1.51928   
     axis 1.07133e-014 90 90   XYZ
    dof ry
    limits (-180.0 0.0)
 end
  begin
     id 21 
     name lhand
     direction 1 -4.48978e-011 -2.82725e-026   
     length 0.523208   
     axis 1.80403e-014 90 90   XYZ
    dof rx rz
    limits (-90.0 90.0)
           (-45.0 45.0)
  end
  begin
     id 22 
     name lfingers
     direction 1 -4.48977e-011 -5.6545e-026   
     length 0.421824   
     axis 3.60806e-014 90 90   XYZ
    dof rx
    limits (0.0 90.0)
  end
  begin
     id 23
     name lthumb
     direction 0.707107 -6.34962e-011 0.707107   
     length 0.605657   
     axis -90 45 2.85299e-015   XYZ
    dof rx rz
    limits (-45.0 45.0)
           (-45.0 45.0)
  end
  begin
     id 24 
     name rclavicle
     direction -0.957247 0.24311 0.156766   
     length 3.12406  
     axis 0 0 0   XYZ 
    dof ry rz
    limits (-10.0 20.0)
           (-20.0 0.0)
  end
  begin
     id 25 
     name rhumerus
     direction -1 -4.48964e-011 -1.70632e-027  
     length 4.61969   
     axis 180 30 90   XYZ
    dof rx ry rz
    limits (-90.0 60.0)
           (-90.0 90.0)
           (-90.0 90.0)
  end
  begin
     id 26 
     name rradius
     direction -1 -4.48966e-011 -6.60395e-027   
     length 3.09382   
     axis 180 30 90   XYZ
    dof rx
    limits (-10.0 170.0)
  end
  begin
     id 27 
     name rwrist
     direction -1 -4.48963e-011 -1.41363e-026   
     length 1.54691   
     axis 1.07133e-014 -90 -90   XYZ
    dof ry
    limits (-180.0 0.0)
  end
  begin
     id 28
     name rhand
     direction -1 -4.49013e-011 -2.82725e-026   
     length 0.500896   
     axis 1.80403e-014 -90 -90   XYZ
    dof rx rz
    limits (-90.0 90.0)
           (-45.0 45.0)
  end
  begin
     id 29
     name rfingers
     direction -1 -4.48902e-011 -5.6545e-026   
     length 0.403835   
     axis 3.60806e-014 -90 -90   XYZ
    dof rx
    limits (0.0 90.0)
  end
  begin
     id 30
     name rthumb
     direction -0.707107 -6.34953e-011 0.707107   
     length 0.579829   
     axis -90 -45 -2.85299e-015   XYZ
    dof rx rz
    limits (-45.0 45.0)
           (-45.0 45.0)
  end
:hierarchy
  begin
    root lhipjoint rhipjoint lowerback
    lhipjoint lfemur
    lfemur ltibia
    ltibia lfoot
    lfoot ltoes
    rhipjoint rfemur
    rfemur rtibia
    rtibia rfoot
    rfoot rtoes
    lowerback upperback
    upperback thorax
    thorax lowerneck lclavicle rclavicle
    lowerneck upperneck
    upperneck head
    lclavicle lhumerus
    lhumerus lradius
    lradius lwrist
    lwrist lhand lthumb
    lhand lfingers
    rclavicle rhumerus
    rhumerus rradius
    rradius rwrist
    rwrist rhand rthumb
    rhand rfingers
  end

#!OML:ASF E:\madness\Project 1\Capture day 1\Session 1\Female1.ASF
:FULLY-SPECIFIED
:DEGREES
254
root 17.2763 16.1297 -0.07707 25.3121 -86.4973 -13.5202
lowerback 12.8786 0.278422 -4.0192
upperback 2.67649 -0.17478 1.95475
thorax -4.38555 -0.0754659 4.36362
lowerneck -3.07078 0.358934 -1.13102
upperneck 23.9614 0.879386 -4.77291
head 7.89803 -0.383362 -1.36123
rclavicle -2.03754e-015 3.08116e-015
rhumerus -36.2277 -15.4582 -26.9729
rradius 111.92
rwrist -16.942
rhand -3.4592 -44.9434
rfingers 7.12502
rthumb 22.2732 -73.6798
lclavicle -2.03754e-015 3.08116e-015
lhumerus -43.5186 2.78151 37.8464
lradius 125.45
lwrist -3.11485
lhand -31.6532 -8.86723
lfingers 7.12502
lthumb -4.91383 21.0558
rfemur -27.3427 9.59733 8.99666
rtibia 26.1021
rfoot -3.84278 -18.2499
rtoes -18.0975
lfemur -33.1649 -17.2431 0.00207806
ltibia 52.6696
lfoot 1.50819 1.32128
ltoes 3.83995
255
root 17.2733 16.1428 0.0355436 32.1321 -86.7854 -20.6874
lowerback 12.5402 0.210151 -4.20797
upperback 2.73316 -0.271322 2.09571
thorax -4.12776 -0.12889 4.63095
lowerneck -3.33627 0.495446 -1.86793
upperneck 24.5862 0.965185 -3.91992
head 8.15525 -0.35874 -0.954535
rclavicle 1.68967e-015 1.54058e-014
rhumerus -37.3164 -14.9661 -29.7038
rradius 112.012
rwrist -17.2119
rhand -3.59259 -45.4385
rfingers 7.12502
rthumb 22.1451 -74.1902
lclavicle 1.68967e-015 1.54058e-014
lhumerus -43.8591 1.7349 40.2855
lradius 125.366
lwrist -3.32959
lhand -32.2123 -8.87224
lfingers 7.12502
lthumb -5.45372 21.0376
rfemur -27.1735 9.75478 8.88429
rtibia 26.0635
rfoot -2.82394 -18.2177
rtoes -19.2279
lfemur -30.7708 -16.9237 -0.302741
ltibia 50.0106
lfoot 0.632719 1.61641
ltoes -2.52997
256
root 17.2828 16.1497 0.150984 37.5708 -86.8257 -26.1856
lowerback 12.1284 0.027377 -4.3185
upperback 2.64571 -0.500641 2.24419
thorax -3.96501 -0.241264 4.88101
lowerneck -2.51585 0.287586 -1.08797
upperneck 24.1886 0.675934 -4.58708
head 7.86888 -0.475994 -1.32563
rclavicle -2.00276e-014 8.34896e-015
rhumerus -38.3727 -14.5733 -32.4443
rradius 111.933
rwrist -17.7446
rhand -4.01861 -45.6085
rfingers 7.12502
rthumb 21.7361 -74.4082
lclavicle -2.00276e-014 8.34896e-015
lhumerus -44.1404 0.643886 42.8464
lradius 124.975
lwrist -3.39473
lhand -32.7774 -9.47884
lfingers 7.12502
lthumb -5.99927 20.4162
rfemur -27.3529 9.70701 8.69986
rtibia 26.2296
rfoot -1.92232 -18.2019
rtoes -19.6737
lfemur -28.8859 -16.7328 -0.491664
ltibia 47.3812
lfoot -0.257879 2.33116
ltoes -7.68234
257
root 17.2985 16.1611 0.272641 43.3242 -86.8729 -32.0977
lowerback 11.9913 -0.131016 -4.39308
upperback 2.52929 -0.703035 2.44626
thorax -3.98449 -0.335668 5.16764
lowerneck -2.66924 0.40883 -1.33258
upperneck 24.9278 0.810306 -4.41208
head 8.14958 -0.453854 -1.22879
rclavicle 7.90169e-015 -1.43125e-014
rhumerus -39.3402 -14.2574 -35.092
rradius 111.605
rwrist -18.2751
rhand -4.48964 -45.6241
rfingers 7.12502
rthumb 21.2837 -74.4754
lclavicle 7.90169e-015 -1.43125e-014
lhumerus -44.5152 -0.391164 45.6628
lradius 124.445
lwrist -3.54282
lhand -33.5426 -9.80007
lfingers 7.12502
lthumb -6.73807 20.0727
rfemur -27.5644 9.76997 8.47548
rtibia 26.5382
rfoot -0.934354 -18.1976
rtoes -20.1691
lfemur -26.9509 -16.5677 -0.798682
ltibia 44.8202
lfoot -1.54316 3.7241
ltoes -13.7117
258
root 17.3245 16.18 0.399607 47.2055 -86.9722 -35.8226
lowerback 11.5273 -0.370344 -4.73077
upperback 2.38306 -1.02636 2.72993
thorax -3.83069 -0.490597 5.70109
lowerneck -3.06975 0.43197 -1.52337
upperneck 25.5907 0.852195 -4.38931
head 8.45102 -0.483052 -1.198
rclavicle -7.45443e-016 -9.93923e-015
rhumerus -39.9346 -13.9015 -37.7625
rradius 111.082
rwrist -18.6199
rhand -4.72109 -45.2011
rfingers 7.12502
rthumb 21.0614 -74.0773
lclavicle -7.45443e-016 -9.93923e-015
lhumerus -45.0733 -1.06572 48.6801
lradius 123.912
lwrist -3.80236
lhand -34.2579 -9.6018
lfingers 7.12502
lthumb -7.42852 20.2478
rfemur -28.1902 9.66815 8.01942
rtibia 26.8934
rfoot 0.322151 -18.1889
rtoes -20.5686
lfemur -25.4803 -16.3565 -1.22943
ltibia 42.3029
lfoot -2.57814 5.28997
ltoes -18.0489
